<?xml version="1.0" encoding="UTF-8"?>
<!-- Generator: visioncortex VTracer 0.6.4 -->
<svg version="1.1" xmlns="http://www.w3.org/2000/svg" width="2000" height="2000">
<path d="M0 0 C3.76961434 0.00330878 7.53920759 -0.00505043 11.30881485 -0.01181835 C17.89727643 -0.02206144 24.48570866 -0.02497213 31.07417741 -0.02290613 C40.87244566 -0.0198412 50.67068171 -0.02821298 60.46894367 -0.03865538 C78.99313713 -0.05794715 97.51731947 -0.06362181 116.04152179 -0.06476949 C130.35428244 -0.06569044 144.66703875 -0.06981677 158.97979799 -0.07617074 C163.10759453 -0.07796598 167.23539109 -0.07974561 171.36318764 -0.0815205 C172.90269999 -0.08218364 172.90269999 -0.08218364 174.4733136 -0.08286019 C203.32360869 -0.09516026 232.17390228 -0.10306217 261.02420011 -0.10217363 C262.11083175 -0.10214247 263.19746339 -0.10211131 264.31702326 -0.10207921 C269.82384981 -0.10191301 275.33067636 -0.10171493 280.8375029 -0.1015098 C281.9310714 -0.10146991 283.0246399 -0.10143002 284.15134684 -0.10138892 C286.36280768 -0.10130804 288.57426853 -0.10122445 290.78572937 -0.10113813 C325.17450009 -0.09991327 359.56323133 -0.11491745 393.95199075 -0.14228326 C432.63738273 -0.17305596 471.32274878 -0.19021262 510.00815377 -0.18835682 C514.13940822 -0.18820757 518.27066267 -0.18811015 522.40191713 -0.18804819 C523.92760926 -0.18801322 523.92760926 -0.18801322 525.48412345 -0.18797755 C541.79734797 -0.18791621 558.11053801 -0.20064557 574.42375231 -0.21791271 C590.84186397 -0.2349305 607.25992559 -0.23679521 623.67804123 -0.22369407 C633.40976519 -0.2163456 643.14133638 -0.21983891 652.87304391 -0.23957875 C659.39879696 -0.25168788 665.92444084 -0.24886815 672.45018913 -0.23463776 C676.15170625 -0.22696556 679.85293058 -0.22505274 683.5544256 -0.24155246 C732.88010688 -0.44667932 780.13655635 10.15024172 823.92684427 33.26933783 C823.92684427 33.92933783 823.92684427 34.58933783 823.92684427 35.26933783 C825.14114114 35.60191596 825.14114114 35.60191596 826.37996927 35.94121283 C830.86468552 37.62051187 834.65086637 39.95007395 838.67684427 42.51933783 C839.50667825 43.04801459 840.33651224 43.57669135 841.19149271 44.12138861 C856.02112543 53.73173182 869.30329294 64.94277108 881.92684427 77.26933783 C882.54076028 77.86278998 883.1546763 78.45624213 883.78719583 79.06767767 C891.37407941 86.4143695 898.45228797 93.90440013 904.92684427 102.26933783 C906.14114114 103.79300971 906.14114114 103.79300971 907.37996927 105.34746283 C912.64982944 112.00674191 917.40132132 118.87788934 921.90731302 126.07402533 C923.53879417 128.65536301 925.23039527 131.15051796 926.98934427 133.64433783 C955.97663203 177.0054873 965.2705814 231.54880631 965.1961821 282.55833017 C965.19287386 286.35963118 965.20123208 290.16091124 965.20800045 293.96220523 C965.21824436 300.60627138 965.22115408 307.25030843 965.21908823 313.8943817 C965.21602353 323.77527948 965.22439455 333.65614533 965.23483748 343.53703687 C965.25412979 362.21703812 965.25980392 380.89702835 965.26095159 399.57703839 C965.26187249 414.00946819 965.26599855 428.44189371 965.27235284 442.87432211 C965.27414807 447.03639783 965.2759277 451.19847355 965.2777026 455.36054927 C965.2781447 456.39540726 965.27858679 457.43026525 965.27904228 458.49648257 C965.29134235 487.58612611 965.29924426 516.67576816 965.29835573 545.76541441 C965.29832457 546.86106844 965.29829341 547.95672246 965.29826131 549.08557811 C965.29809511 554.63815192 965.29789703 560.19072572 965.2976919 565.74329953 C965.29763206 567.39728553 965.29763206 567.39728553 965.29757102 569.08468539 C965.29749014 571.3145257 965.29740654 573.54436602 965.29732023 575.77420633 C965.29609526 610.45163674 965.31110141 645.129028 965.33846536 679.80644721 C965.36923431 718.81448177 965.38639496 757.82249063 965.38453892 796.83053809 C965.38438967 800.99575736 965.38429225 805.16097662 965.38423028 809.32619589 C965.38419532 810.86443751 965.38419532 810.86443751 965.38415965 812.43375471 C965.38409829 828.88479191 965.39683041 845.33579492 965.41409481 861.78682197 C965.43110788 878.34158151 965.43298094 894.89629143 965.41987617 911.45105491 C965.4125247 921.2651947 965.41603018 931.07918303 965.43576085 940.89330654 C965.44786205 947.47271932 965.44505878 954.05202376 965.43081986 960.63143181 C965.4231412 964.36441644 965.42125457 968.09711058 965.43773456 971.8300734 C965.65862692 1025.46360457 952.64657805 1078.07571185 923.19588724 1123.31670111 C921.95957354 1125.21897832 920.741355 1127.13191793 919.52450052 1129.04668158 C910.13462319 1143.65336983 898.92797112 1156.75574975 886.92684427 1169.26933783 C886.44392923 1169.77948432 885.96101419 1170.2896308 885.46346536 1170.81523627 C877.87397214 1178.80764416 869.74182949 1185.66932744 860.92684427 1192.26933783 C860.32469095 1192.72695502 859.72253763 1193.18457221 859.10213724 1193.65605658 C820.83689851 1222.72908712 775.69844544 1242.09268197 727.92684427 1248.26933783 C726.64142337 1248.43611712 725.35600246 1248.6028964 724.03162941 1248.77472961 C709.33214176 1250.52683496 694.66859031 1250.55786933 679.88635878 1250.5324743 C676.12168045 1250.52825229 672.35702061 1250.5357348 668.592347 1250.54162681 C662.01272654 1250.55033905 655.43313722 1250.55171878 648.85351244 1250.54812354 C639.06871585 1250.54279118 629.28394913 1250.54893717 619.49915579 1250.55720647 C601.00232879 1250.57240996 582.50551552 1250.5741553 564.00868357 1250.57168344 C549.72066184 1250.56984753 535.43264459 1250.57161664 521.14462343 1250.57590788 C519.08854932 1250.5765103 517.03247522 1250.5771115 514.97640112 1250.57771149 C511.87771764 1250.57861879 508.77903416 1250.57952746 505.68035068 1250.58044384 C476.88720633 1250.5888679 448.09406366 1250.59321285 419.30091825 1250.58903712 C418.21650102 1250.58888074 417.13208379 1250.58872437 416.01480543 1250.58856325 C410.5191242 1250.58775752 405.02344298 1250.58691175 399.52776176 1250.58604995 C398.43639196 1250.58587886 397.34502216 1250.58570777 396.22058054 1250.5855315 C394.01356827 1250.58518484 391.806556 1250.58483631 389.59954373 1250.58448592 C355.26454195 1250.57912968 320.92956586 1250.58705861 286.59456888 1250.60551947 C247.97735521 1250.62625866 209.36015744 1250.63695854 170.74293789 1250.63294399 C166.62133991 1250.63254867 162.49974192 1250.63218712 158.37814394 1250.6318466 C156.85599445 1250.63171051 156.85599445 1250.63171051 155.30309448 1250.63157166 C140.01811813 1250.63040816 124.73315791 1250.63703508 109.44818559 1250.64765853 C92.05443832 1250.65973564 74.66072645 1250.6612406 57.26697863 1250.64886836 C47.5473496 1250.64226321 37.82780536 1250.6438164 28.10818321 1250.65745687 C21.59814868 1250.66575114 15.08817712 1250.66293983 8.57814763 1250.6514816 C4.88072501 1250.64527406 1.18346679 1250.64349538 -2.51394581 1250.65534494 C-24.07914989 1250.71982257 -45.34635125 1249.46585852 -66.51065573 1245.08183783 C-67.52103903 1244.87462103 -68.53142233 1244.66740424 -69.57242331 1244.45390814 C-115.02941585 1234.70138062 -159.01867323 1213.13419202 -193.07315573 1181.26933783 C-194.8415358 1179.68326499 -196.6123738 1178.09992833 -198.38565573 1176.51933783 C-201.71415342 1173.52265299 -204.94768542 1170.47928031 -208.07315573 1167.26933783 C-208.60296042 1166.74984564 -209.13276511 1166.23035346 -209.67862448 1165.69511908 C-214.04610113 1161.40477226 -218.14005032 1156.96081139 -222.07315573 1152.26933783 C-222.50257468 1151.75903021 -222.93199362 1151.2487226 -223.37442526 1150.72295111 C-239.9118054 1130.9474031 -252.43738888 1108.81275391 -263.09756979 1085.40605658 C-263.958365 1083.52075137 -264.83851523 1081.64430913 -265.72159323 1079.76933783 C-272.92636225 1063.9112219 -277.15766141 1047.14125865 -280.38565573 1030.08183783 C-280.62799948 1028.81356146 -280.87034323 1027.5452851 -281.12003073 1026.23857611 C-284.73123593 1006.26218464 -285.37111297 986.49896755 -285.3362922 966.23505371 C-285.33207016 962.47126399 -285.33955272 958.70749276 -285.34544471 954.94370776 C-285.35415695 948.36561765 -285.35553668 941.78755869 -285.35194144 935.20946425 C-285.34660906 925.42688977 -285.35275512 915.64434516 -285.36102437 905.86177393 C-285.37622803 887.36882597 -285.37797317 868.87589175 -285.37550134 850.38293885 C-285.37366539 836.09730939 -285.37543463 821.81168441 -285.37972578 807.52605551 C-285.3803282 805.47027305 -285.3809294 803.41449058 -285.38152939 801.35870812 C-285.38243669 798.26045083 -285.38334536 795.16219354 -285.38426174 792.06393625 C-285.39268589 763.27436529 -285.3970307 734.48479601 -285.39285502 705.69522399 C-285.39269864 704.61093197 -285.39254227 703.52663996 -285.39238115 702.40949061 C-285.39157543 696.91445735 -285.39072965 691.41942409 -285.38986785 685.92439084 C-285.38969676 684.83315223 -285.38952568 683.74191362 -285.3893494 682.61760718 C-285.38900275 680.41085984 -285.38865422 678.20411251 -285.38830382 675.99736517 C-285.38294798 641.66906725 -285.39087533 607.34079502 -285.40933737 573.01250189 C-285.4300786 534.40150457 -285.44077602 495.79052316 -285.43676189 457.17951995 C-285.43636657 453.05818488 -285.43600502 448.93684981 -285.43566451 444.81551474 C-285.43557377 443.80081584 -285.43548304 442.78611694 -285.43538956 441.74066959 C-285.43422625 426.45924275 -285.44085158 411.17783203 -285.45147643 395.89640921 C-285.46355615 378.50525238 -285.46505556 361.11413095 -285.45268626 343.72297357 C-285.44608327 334.00577659 -285.44762921 324.28866441 -285.46127477 314.57147431 C-285.46957342 308.06178456 -285.46675217 301.55215773 -285.45529951 295.042473 C-285.44909618 291.34606751 -285.44730193 287.64982637 -285.45916284 283.95343093 C-285.65130929 219.57991377 -268.61608311 155.595627 -227.07315573 105.26933783 C-226.38608542 104.40824408 -225.69901511 103.54715033 -224.99112448 102.65996283 C-213.90366395 88.83559763 -201.70518286 75.52545833 -187.83096823 64.47246283 C-186.05323593 63.05229142 -184.29595883 61.60593611 -182.56534323 60.12871283 C-155.46794217 37.09177859 -121.76538615 20.07719712 -87.57315573 10.64433783 C-86.88338644 10.45201575 -86.19361716 10.25969367 -85.48294577 10.06154364 C-73.1440476 6.63744089 -60.79054378 3.87415984 -48.07315573 2.26933783 C-46.79154619 2.10376958 -45.50993666 1.93820133 -44.18949047 1.76761585 C-29.4753773 0.01255695 -14.79715577 -0.02176833 0 0 Z M387.92684427 173.26933783 C386.71867044 173.39598822 385.51049661 173.52263861 384.26571146 173.65312689 C372.53517585 174.89457346 360.91115256 176.25631698 349.34481302 178.59355658 C346.20993243 179.21336726 343.0907583 179.70180345 339.92684427 180.14433783 C311.25724663 184.48503393 282.32402929 191.78964492 254.92684427 201.26933783 C254.01257669 201.58370795 253.09830911 201.89807807 252.15633646 202.22197455 C239.44726475 206.62565255 227.10577153 211.56800946 214.92684427 217.26933783 C213.96874856 217.71293646 213.01065286 218.1565351 212.02352396 218.61357611 C190.17727464 228.75328699 169.25707003 239.79376483 150.57137552 255.12871283 C148.63105261 256.69931395 146.68158858 258.22202339 144.68856302 259.72246283 C108.30440237 287.25919303 84.7036106 328.66662598 77.61434427 373.58183783 C74.65987659 401.36519735 76.81280117 428.83861283 85.92684427 455.26933783 C86.15210794 455.93626654 86.37737161 456.60319525 86.60946146 457.29033392 C93.3390781 476.83036431 105.16916711 494.27933005 119.17684427 509.30840033 C120.92684427 511.26933783 120.92684427 511.26933783 121.92684427 513.26933783 C122.58684427 513.26933783 123.24684427 513.26933783 123.92684427 513.26933783 C124.15887552 513.82492377 124.39090677 514.38050971 124.62996927 514.95293158 C137.29098239 537.56733152 173.01734937 556.03351653 195.23934427 567.64433783 C195.92594125 568.00584937 196.61253824 568.3673609 197.31994119 568.73982733 C217.99851917 579.61813703 239.17133978 589.09251406 260.96749368 597.51225775 C263.12476862 598.34581449 265.28119355 599.18154893 267.43758646 600.01738471 C289.68687448 608.63694231 289.68687448 608.63694231 312.02889505 617.01201361 C343.36224062 628.57921835 376.92269684 642.28271556 403.92684427 662.26933783 C404.87559427 662.95254096 405.82434427 663.63574408 406.80184427 664.33965033 C414.24808943 669.70649193 414.24808943 669.70649193 417.62606302 672.50761908 C419.70853588 674.47198794 419.70853588 674.47198794 421.92684427 674.26933783 C422.16918802 674.83394721 422.41153177 675.39855658 422.66121927 675.98027533 C424.17059736 678.71019991 426.0199206 680.64203998 428.17684427 682.89433783 C438.03316526 693.6394736 443.72198756 706.34522314 443.16903177 721.15215033 C442.17647538 729.82901425 439.82965181 736.29927498 434.45028177 743.21074408 C432.74830012 745.28806394 432.74830012 745.28806394 431.92684427 748.26933783 C430.93684427 748.59933783 429.94684427 748.92933783 428.92684427 749.26933783 C428.92684427 749.92933783 428.92684427 750.58933783 428.92684427 751.26933783 C428.41121927 751.49621283 427.89559427 751.72308783 427.36434427 751.95683783 C424.03137422 753.75151401 420.77980756 755.76898798 417.92684427 758.26933783 C417.92684427 758.92933783 417.92684427 759.58933783 417.92684427 760.26933783 C417.20118265 760.54696967 416.47552103 760.8246015 415.72786966 761.11064642 C413.07962027 762.20613946 410.62550388 763.43818344 408.11043802 764.80840033 C398.77547761 769.82906207 389.47256303 774.7232192 379.61434427 778.64433783 C378.54494607 779.07093695 378.54494607 779.07093695 377.45394388 779.50615424 C362.98714157 785.08251891 348.19803055 789.47704789 333.17684427 793.26933783 C332.33645608 793.48311072 331.4960679 793.69688361 330.63021341 793.91713446 C305.92248352 800.18569987 280.99126272 804.77766424 255.81087747 808.66435736 C253.11757519 809.08386852 250.42647835 809.51080793 247.73617044 809.94853705 C238.48619922 811.44661074 229.22361112 812.80304519 219.93856302 814.06621283 C192.45902191 817.80567289 165.11122953 821.75688178 137.92684427 827.26933783 C137.20575479 827.41500189 136.48466531 827.56066596 135.74172464 827.71074408 C126.66153149 829.54859714 117.6024421 831.46974563 108.55721536 833.47246283 C105.29541105 834.18843655 102.02883373 834.87312066 98.75887552 835.55058783 C39.49078007 848.29359893 -18.1525716 875.22799221 -65.76651511 912.4915058 C-68.68331321 914.73961374 -71.66487901 916.89333899 -74.66592917 919.02739447 C-75.36250632 919.64215643 -75.36250632 919.64215643 -76.07315573 920.26933783 C-76.07315573 920.92933783 -76.07315573 921.58933783 -76.07315573 922.26933783 C-77.06315573 922.59933783 -78.05315573 922.92933783 -79.07315573 923.26933783 C-79.07315573 923.92933783 -79.07315573 924.58933783 -79.07315573 925.26933783 C-79.61456198 925.48590033 -80.15596823 925.70246283 -80.71378073 925.92558783 C-83.89105968 927.73516392 -86.28180972 930.18194709 -88.82315573 932.76933783 C-89.34812644 933.29962592 -89.87309714 933.829914 -90.41397604 934.37627142 C-98.78569386 941.90065414 -98.78569386 941.90065414 -103.07315573 951.26933783 C-103.73315573 951.26933783 -104.39315573 951.26933783 -105.07315573 951.26933783 C-106.06315573 953.74433783 -106.06315573 953.74433783 -107.07315573 956.26933783 C-107.73315573 956.26933783 -108.39315573 956.26933783 -109.07315573 956.26933783 C-110.30077031 957.8166258 -110.30077031 957.8166258 -111.46378073 959.85527533 C-111.92284811 960.61566107 -112.3819155 961.37604682 -112.85489401 962.15947455 C-113.33942038 962.97947943 -113.82394675 963.79948432 -114.32315573 964.64433783 C-114.82186179 965.4785224 -115.32056784 966.31270697 -115.8343862 967.17216986 C-116.81893379 968.81907867 -117.80125695 970.46731967 -118.78116354 972.11699408 C-120.20616809 974.49092455 -121.70357371 976.81380315 -123.19815573 979.14433783 C-140.3705136 1008.0948547 -150.9398753 1045.53814935 -149.07315573 1079.26933783 C-147.33698836 1081.0055052 -144.97036294 1080.41286492 -142.60542807 1080.42755621 C-140.81843528 1080.44224039 -140.81843528 1080.44224039 -138.99534163 1080.45722121 C-137.65889402 1080.46313154 -136.32244597 1080.46894093 -134.98599753 1080.4746601 C-133.58262155 1080.48423857 -132.17924842 1080.49424321 -130.77587828 1080.50464171 C-126.92071783 1080.53188902 -123.06554502 1080.55282319 -119.21034011 1080.57263559 C-115.10454721 1080.59471168 -110.9987904 1080.62225114 -106.89302573 1080.64899176 C-98.93948305 1080.69976161 -90.98591755 1080.74470092 -83.03232697 1080.7872405 C-76.61414385 1080.82158238 -70.19597341 1080.85774732 -63.77780661 1080.89500922 C-19.10574601 1081.15328543 25.5664882 1081.370671 70.23937097 1081.39227408 C73.50251778 1081.3943071 76.76565874 1081.3980465 80.0288035 1081.40218085 C113.70398108 1081.43958048 147.38440139 1081.29402835 180.98934427 1078.89433783 C182.92861189 1078.76111248 184.86790293 1078.62822771 186.80721536 1078.49565619 C192.51484837 1078.10147433 198.22095208 1077.68786513 203.92684427 1077.26933783 C204.77627603 1077.20768439 205.62570779 1077.14603095 206.50087991 1077.08250922 C238.72064306 1074.74142292 270.92356567 1072.03605637 302.64254251 1065.7224018 C305.22891515 1065.20942568 307.81660227 1064.70338282 310.40438333 1064.19756049 C341.21810145 1058.15963816 371.94011646 1052.08496266 401.64950052 1041.73027533 C405.10532762 1040.52883839 408.56977192 1039.49624901 412.11434427 1038.58183783 C416.24194959 1037.5129104 420.06998398 1036.07605218 424.00106302 1034.43340033 C427.74822816 1032.9425389 431.5523414 1031.6459056 435.36434427 1030.33183783 C441.02049138 1028.36466854 446.48281207 1026.22966887 451.89950052 1023.66386908 C455.80412467 1021.86522286 459.76974426 1020.23088544 463.73934427 1018.58183783 C478.97093546 1012.20216967 493.99007706 1005.64493613 508.28231302 997.34355658 C511.69607166 995.37030132 515.19161652 993.61705223 518.73934427 991.89433783 C532.26603285 985.23908352 545.16822118 977.28016478 557.92684427 969.26933783 C558.78664896 968.73308783 559.64645364 968.19683783 560.53231302 967.64433783 C579.7062056 955.57725869 598.48925853 942.83422132 616.17684427 928.66777533 C619.3096736 926.16430903 622.46259074 923.68640285 625.61434427 921.20683783 C626.203043 920.7414057 626.79174173 920.27597357 627.39827981 919.79643744 C629.86019678 917.85642811 632.31699686 916.0092361 634.92684427 914.26933783 C634.92684427 913.60933783 634.92684427 912.94933783 634.92684427 912.26933783 C635.50563333 912.00765814 636.08442239 911.74597846 636.68075052 911.47636908 C639.06255058 910.19641044 640.85001073 908.75577729 642.86434427 906.95683783 C643.51274271 906.38320502 644.16114114 905.80957221 644.82918802 905.21855658 C647.25851509 902.96113719 649.59032718 900.62283542 651.92684427 898.26933783 C653.06276579 897.14353287 654.19953851 896.01858634 655.33700052 894.89433783 C656.55448776 893.68604412 657.77193501 892.47771012 658.98934427 891.26933783 C659.60100442 890.66605658 660.21266458 890.06277533 660.84285989 889.44121283 C664.09317979 886.20846223 667.24957217 883.00817169 669.92684427 879.26933783 C669.92684427 878.60933783 669.92684427 877.94933783 669.92684427 877.26933783 C670.58684427 877.26933783 671.24684427 877.26933783 671.92684427 877.26933783 C673.29335583 875.82446904 673.29335583 875.82446904 674.64950052 873.89433783 C675.45097513 872.79931952 675.45097513 872.79931952 676.26864114 871.68217963 C676.83647317 870.88594183 677.40430521 870.08970404 677.98934427 869.26933783 C678.57135599 868.45569769 679.15336771 867.64205756 679.75301614 866.80376166 C696.72229833 842.71327436 705.81405864 816.51836692 701.11434427 786.83183783 C700.74103311 784.97300572 700.34566 783.11844882 699.92684427 781.26933783 C699.73219583 780.32316596 699.53754739 779.37699408 699.33700052 778.40215033 C695.27798668 760.29270396 686.38903025 742.51827685 675.92684427 727.26933783 C675.50951028 726.66041693 675.0921763 726.05149603 674.66219583 725.42412299 C669.02054227 717.22839691 663.16822923 709.24155952 657.05184427 701.39433783 C645.24372143 686.16023042 645.24372143 686.16023042 643.92684427 676.26933783 C647.67825626 673.7683965 650.59154205 673.89796746 654.92684427 674.26933783 C671.27087146 677.59413994 685.86215661 686.31463024 698.73934427 696.65215033 C700.7414869 698.4674951 700.7414869 698.4674951 702.92684427 698.26933783 C702.92684427 698.92933783 702.92684427 699.58933783 702.92684427 700.26933783 C704.53042884 701.63313405 706.18719551 702.93459742 707.86434427 704.20683783 C713.15616669 708.40474348 717.05491467 712.7817489 721.14950052 718.17949408 C721.73602396 718.86914252 722.32254739 719.55879096 722.92684427 720.26933783 C723.58684427 720.26933783 724.24684427 720.26933783 724.92684427 720.26933783 C725.18723489 721.01054877 725.44762552 721.75175971 725.71590677 722.51543158 C726.95479342 725.33289961 728.27127411 727.03994958 730.30184427 729.33183783 C757.56335247 762.69001059 767.94500858 806.20284546 764.64168802 848.51933783 C760.70508442 881.54094475 744.10395632 913.41386404 723.92684427 939.26933783 C723.03545755 940.45076361 723.03545755 940.45076361 722.12606302 941.65605658 C717.70141037 947.48439213 712.86094234 952.87085406 707.92684427 958.26933783 C706.40553493 959.97724729 704.88469687 961.68557665 703.36434427 963.39433783 C699.84560938 967.3219398 696.1806873 971.04151055 692.36043802 974.67558783 C690.70392315 976.15988815 690.70392315 976.15988815 690.92684427 978.26933783 C691.91684427 978.26933783 692.90684427 978.26933783 693.92684427 978.26933783 C693.92684427 977.60933783 693.92684427 976.94933783 693.92684427 976.26933783 C694.50563333 976.14558783 695.08442239 976.02183783 695.68075052 975.89433783 C716.19269639 970.18666593 737.99935044 947.94110561 753.10262552 933.84746283 C755.12848737 931.99812836 757.14682727 930.27560254 759.28231302 928.56621283 C760.15500833 927.80824408 761.02770364 927.05027533 761.92684427 926.26933783 C761.92684427 925.60933783 761.92684427 924.94933783 761.92684427 924.26933783 C762.58684427 924.26933783 763.24684427 924.26933783 763.92684427 924.26933783 C763.92684427 923.60933783 763.92684427 922.94933783 763.92684427 922.26933783 C764.58684427 922.26933783 765.24684427 922.26933783 765.92684427 922.26933783 C767.32747154 920.92338212 767.32747154 920.92338212 768.80184427 919.08183783 C771.46997495 915.92206402 774.22972907 912.89943694 777.09823099 909.92046088 C805.90070541 879.7404768 823.67864614 840.32725448 828.92684427 799.26933783 C829.02400735 798.53521674 829.12117044 797.80109564 829.22127786 797.04472846 C833.83398846 759.64616281 823.98557288 719.0360544 805.92684427 686.26933783 C805.59684427 685.65767767 805.26684427 685.04601752 804.92684427 684.41582221 C801.08334517 677.30685025 796.9144489 670.56940362 792.04793802 664.10918158 C790.51638391 662.05864781 789.03726598 660.00442641 787.58700052 657.89824408 C782.65281545 650.75829226 777.42037801 644.24121311 771.45028177 637.94121283 C769.35373375 635.72133846 767.34373034 633.46756092 765.36434427 631.14433783 C758.79653862 623.5866476 751.53909703 616.75528789 743.92684427 610.26933783 C742.9103675 609.37838158 741.89482009 608.48636444 740.87996927 607.59355658 C727.67678934 596.03814878 713.67139478 585.76479981 698.92684427 576.26933783 C698.21721536 575.81091498 697.50758646 575.35249213 696.77645364 574.88017767 C679.59445843 563.8137444 662.21749336 553.01061874 643.77303567 544.16679877 C641.36289154 542.99519207 638.98498811 541.76228079 636.60286966 540.53496283 C611.67606762 527.78581634 585.1333266 515.78961156 558.43075052 507.37480658 C555.85539843 506.56229305 553.3129106 505.71533446 550.76668802 504.82011908 C541.84726757 501.70626191 532.93318241 499.15258034 523.70955911 497.09355658 C518.97180159 496.03045921 514.33007235 494.81175545 509.67684427 493.42168158 C499.79943891 490.56180022 489.73715501 488.55917553 479.67684427 486.45683783 C477.57649226 486.01342382 475.47623286 485.56957089 473.37606302 485.12529486 C464.05219644 483.15722193 454.72377628 481.21479933 445.37996927 479.34355658 C408.08198345 471.8696648 370.99404271 462.27699961 335.92684427 447.26933783 C334.8657847 446.81526557 333.80472513 446.3611933 332.71151224 445.89336127 C329.06886881 444.32390062 325.43373664 442.73845684 321.80184427 441.14433783 C320.64998636 440.64095892 319.49812845 440.13758002 318.31136575 439.61894721 C312.82145924 437.17487415 307.60704622 434.6516462 302.58162942 431.35039252 C300.35787826 429.897638 298.03182657 428.68246541 295.67684427 427.45683783 C285.69601137 422.04653807 276.85848988 415.61134923 268.32528177 408.17558783 C266.17651015 406.06193648 266.17651015 406.06193648 263.92684427 406.26933783 C263.92684427 405.60933783 263.92684427 404.94933783 263.92684427 404.26933783 C262.8109315 403.15342507 261.69089881 402.04145888 260.55575052 400.94511908 C249.19540611 389.25785829 244.49400931 378.09675956 244.56331888 361.90044135 C244.89095773 345.97428087 252.73513542 333.26470091 263.92684427 322.26933783 C270.52946657 316.40034023 277.56604396 311.14498048 284.92684427 306.26933783 C285.64614114 305.77949408 286.36543802 305.28965033 287.10653177 304.78496283 C300.10921878 296.41645147 315.33815145 291.55490487 329.98153177 286.90117377 C332.63024888 286.04087258 335.24279633 285.08372584 337.86434427 284.14433783 C398.48759071 264.02009211 477.91847309 267.46477277 538.33309427 285.88261908 C542.48539915 287.14805754 546.65785153 288.33212119 550.83700052 289.50542182 C563.72116926 293.13083225 576.30649752 297.27005399 588.83260599 301.9836933 C618.44332377 313.47379917 618.44332377 313.47379917 649.22762552 309.58965033 C665.619358 301.57169725 677.6096798 288.44634683 683.92684427 271.26933783 C688.64233878 254.62940935 688.07759455 237.46010917 679.64559427 222.04277533 C664.45829502 197.535997 639.69551218 191.41276533 613.36434427 185.20683783 C601.97760147 182.59498772 590.55234413 180.50424351 579.00594583 178.7415058 C575.83916485 178.25589254 572.67611855 177.74951949 569.51278177 177.24199408 C553.44535235 174.71371934 537.37436372 173.00644556 521.17977396 171.56645697 C518.35660187 171.30859143 515.53876013 171.02219124 512.71981302 170.72246283 C471.49606592 166.57191316 428.9943043 168.90624717 387.92684427 173.26933783 Z M688.92684427 978.26933783 C688.59684427 978.92933783 688.26684427 979.58933783 687.92684427 980.26933783 C688.91684427 979.93933783 689.90684427 979.60933783 690.92684427 979.26933783 C690.26684427 978.93933783 689.60684427 978.60933783 688.92684427 978.26933783 Z " fill="#10B981" transform="translate(660.0731557318941,374.73066216893494)"/>
</svg>

