<svg width="357" height="336" viewBox="0 0 357 336" fill="none" xmlns="http://www.w3.org/2000/svg">
<path d="M356.541 6.11334C356.884 16.698 357.305 26.7965 354.787 36.8315C348.695 61.1106 328.511 78.3857 303.487 80.3232C303.017 80.3596 302.528 80.1722 301.174 79.9382C302.836 60.8685 312.494 46.2532 325.841 33.4966C308.153 41.8687 298.212 56.1881 293.699 74.8174C290.776 86.8833 291.02 99.2548 289.869 111.487C286.105 151.504 258.945 180.383 219.13 187.051C206.033 189.245 192.744 190.472 179.988 194.684C157.79 202.013 145.49 217.931 144.604 241.357C144.006 257.166 145.187 273.006 143.778 288.805C142.474 303.433 137.794 316.51 125.972 325.987C110.623 338.292 93.4654 337.753 75.7831 332.374C75.5841 332.313 75.5157 331.823 75.3631 331.481C76.0389 329.831 77.5897 330.459 78.7808 330.234C91.3411 327.864 99.3211 320.718 102.292 308.099C105.227 295.631 104.434 282.92 104.734 270.315C105.169 251.998 104.912 233.708 111.405 216.121C120.698 190.953 138.238 174.087 162.841 164.172C176.866 158.519 191.721 156.461 206.541 154.288C212.142 153.467 217.711 152.455 223.051 150.557C241.083 144.145 250.686 130.414 251.139 110.5C251.486 95.1927 251.503 79.829 256.146 65.0224C263.331 42.1111 277.775 25.9808 300.821 18.1776C306.329 16.3125 311.934 14.7086 317.551 13.1942C330.189 9.78674 343.236 7.58496 354.275 0C356.492 1.64096 355.697 3.942 356.541 6.11334Z" fill="#10B981"/>
<path d="M21.7331 108.94C19.2921 84.1301 24.9834 62.7604 45.2981 47.2547C54.8928 39.9313 65.8245 36.3537 78.0827 38.2895C83.0737 39.0776 87.6118 40.8196 90.9861 44.8597C89.6191 47.2059 87.4517 47.8603 85.5777 48.7909C56.7839 63.0883 50.2751 99.6954 72.5969 122.787C84.2832 134.876 99.1014 142.256 114.092 149.212C122.699 153.206 131.529 156.717 140.221 160.533C142.142 161.377 144.391 161.773 145.693 163.663C145.611 165.378 144.22 165.95 143.177 166.597C133.159 172.814 124.457 180.467 117.445 189.974C116.142 191.741 114.736 192.131 112.72 191.235C89.8816 181.094 66.6686 171.601 47.4899 154.928C33.5621 142.82 24.4653 127.897 21.7331 108.94Z" fill="#FAFAFA"/>
<path d="M254.981 304.775C252.157 296.257 251.295 287.812 251.253 279.329C251.106 249.025 251.175 218.719 251.106 188.414C251.099 185.396 251.616 182.947 254.498 181.233C269.528 172.293 280.659 159.812 287.978 143.928C288.254 143.33 288.592 142.75 288.985 142.223C289.15 142.001 289.532 141.94 290.106 141.667C291.265 143.464 290.742 145.478 290.744 147.338C290.779 192.963 290.706 238.588 290.838 284.213C290.863 292.676 291.477 301.18 293.795 309.395C296.381 318.56 301.749 325.356 310.992 328.712C313.067 329.466 315.484 329.718 317.184 331.63C300.341 340.82 265.971 336.675 254.981 304.775Z" fill="#10B981"/>
<path d="M90.6803 21.4669C98.9837 20.0015 106.897 18.8938 114.876 20.526C130.375 23.6968 138.954 33.7527 142.489 48.6595C143.834 54.3338 144.566 60.1122 144.559 65.9594C144.528 92.7823 144.495 119.605 144.422 146.428C144.415 148.853 144.852 151.427 143.316 153.411C141.79 153.93 140.7 153.376 139.664 152.915C129.321 148.318 119.024 143.618 108.653 139.086C105.429 137.677 104.406 135.496 104.429 132.051C104.564 110.894 104.531 89.7345 104.513 68.5759C104.508 62.9102 104.129 57.3342 102.241 51.8535C97.6726 38.599 88.0376 31.3293 73.8893 30.9222C71.7847 30.8616 69.677 30.9138 67.4557 30.2493C74.4852 25.6059 82.3736 23.5858 90.6803 21.4669Z" fill="#10B981"/>
<path d="M224.701 229.589C234.008 260.63 222.808 292.394 195.835 312.514C184.209 321.185 171.374 327.321 157.563 331.54C156.48 331.871 155.381 332.414 153.944 331.735C154.037 329.722 155.91 329.455 157.135 328.647C173.543 317.814 185.932 303.85 190.471 284.239C196.419 258.539 189.274 237.222 168.142 220.988C159.365 214.246 159.291 214.246 168.515 207.862C178.391 201.028 189.785 198.696 201.383 196.998C203.574 196.677 204.734 198.087 206.035 199.364C214.636 207.808 220.766 217.791 224.701 229.589Z" fill="#FAFAFA"/>
<path d="M4.21534 270.586C1.20715 263.036 -0.964404 255.683 0.434202 247.852C2.37236 237 11.7062 229.325 22.6777 229.28C34.8793 229.229 44.1924 236.76 46.658 249.143C48.4589 258.188 51.0191 266.926 55.5799 274.96C63.5887 289.068 75.2069 299.152 90.1234 305.494C95.4346 307.751 95.9402 309.147 92.6716 313.987C86.289 323.439 76.6055 325.044 66.5168 323.304C38.5343 318.476 19.8146 301.397 7.13804 276.811C6.14673 274.889 5.2771 272.903 4.21534 270.586Z" fill="#FAFAFA"/>
<path d="M220.121 104.126C213.391 111.626 205.36 114.173 195.963 111.878C186.659 109.605 181.113 103.402 178.694 94.3017C177.328 89.1609 176.296 83.9485 174.595 78.8765C170.627 67.0415 163.523 57.7376 153.105 50.9042C151.463 49.8276 149.668 48.8896 149.1 46.6807C146.412 36.2428 141.301 27.2746 132.238 20.3332C136.143 18.0354 139.502 19.9197 142.669 20.3719C166.891 23.8306 188.639 32.8735 205.93 50.6211C216.094 61.0532 223.346 73.325 224.772 88.3052C225.319 94.0455 223.515 99.1402 220.121 104.126Z" fill="#FAFAFA"/>
<path d="M165.391 313.537C155.354 323.118 143.798 329.153 130.863 332.879C130.146 330.748 131.564 330.348 132.318 329.618C136.287 325.773 140.366 321.746 142.388 316.701C145.225 309.624 150.36 306.148 156.913 302.983C170.043 296.639 179.138 286.316 183.312 272.05C183.577 271.144 183.789 270.067 185.862 269.769C184.722 287.12 178.303 301.601 165.391 313.537Z" fill="#FAFAFA"/>
</svg>
